<svg xmlns="http://www.w3.org/2000/svg" xmlns:xlink="http://www.w3.org/1999/xlink" width="500" zoomAndPan="magnify" viewBox="0 0 375 374.999991" height="500" preserveAspectRatio="xMidYMid meet" version="1.0"><defs><g/><clipPath id="da1e35bda3"><path d="M 97 98 L 262 98 L 262 169 L 97 169 Z M 97 98 " clip-rule="nonzero"/></clipPath><clipPath id="470c591abe"><path d="M 142.394531 32.984375 L 307.226562 131.441406 L 232.613281 256.355469 L 67.78125 157.894531 Z M 142.394531 32.984375 " clip-rule="nonzero"/></clipPath><clipPath id="2d51478304"><path d="M 142.480469 32.839844 L 307.3125 131.300781 L 232.3125 256.855469 L 67.480469 158.394531 Z M 142.480469 32.839844 " clip-rule="nonzero"/></clipPath><clipPath id="91c3a50531"><path d="M 142.480469 32.839844 L 307.3125 131.300781 L 232.3125 256.855469 L 67.480469 158.394531 Z M 142.480469 32.839844 " clip-rule="nonzero"/></clipPath><clipPath id="b26be66db2"><path d="M 91 85 L 288 85 L 288 174 L 91 174 Z M 91 85 " clip-rule="nonzero"/></clipPath><clipPath id="da84500c21"><path d="M 142.394531 32.984375 L 307.226562 131.441406 L 232.613281 256.355469 L 67.78125 157.894531 Z M 142.394531 32.984375 " clip-rule="nonzero"/></clipPath><clipPath id="6b1ca47f06"><path d="M 142.480469 32.839844 L 307.3125 131.300781 L 232.3125 256.855469 L 67.480469 158.394531 Z M 142.480469 32.839844 " clip-rule="nonzero"/></clipPath><clipPath id="db18b25a79"><path d="M 142.480469 32.839844 L 307.3125 131.300781 L 232.3125 256.855469 L 67.480469 158.394531 Z M 142.480469 32.839844 " clip-rule="nonzero"/></clipPath><clipPath id="615bbfb8fc"><path d="M 151 168 L 262 168 L 262 193 L 151 193 Z M 151 168 " clip-rule="nonzero"/></clipPath><clipPath id="fdb53019e2"><path d="M 142.394531 32.984375 L 307.226562 131.441406 L 232.613281 256.355469 L 67.78125 157.894531 Z M 142.394531 32.984375 " clip-rule="nonzero"/></clipPath><clipPath id="6b01e0ac63"><path d="M 142.480469 32.839844 L 307.3125 131.300781 L 232.3125 256.855469 L 67.480469 158.394531 Z M 142.480469 32.839844 " clip-rule="nonzero"/></clipPath><clipPath id="afbe9ba378"><path d="M 142.480469 32.839844 L 307.3125 131.300781 L 232.3125 256.855469 L 67.480469 158.394531 Z M 142.480469 32.839844 " clip-rule="nonzero"/></clipPath></defs><g clip-path="url(#da1e35bda3)"><g clip-path="url(#470c591abe)"><g clip-path="url(#2d51478304)"><g clip-path="url(#91c3a50531)"><path fill="#ef920d" d="M 226.15625 112.253906 C 218.574219 107.4375 210.199219 103.867188 201.261719 101.636719 C 192.578125 99.472656 183.59375 98.628906 174.554688 99.128906 C 165.734375 99.617188 157.128906 101.371094 148.976562 104.347656 C 140.609375 107.402344 132.929688 111.664062 126.15625 117.015625 C 111.46875 128.625 101.679688 144.90625 97.84375 164.101562 L 97.636719 165.152344 L 109.265625 168.214844 L 109.851562 166.011719 L 100.296875 163.496094 C 100.75 161.351562 101.285156 159.25 101.894531 157.195312 L 106.097656 159.226562 L 107.089844 157.171875 L 102.578125 154.992188 C 103.21875 153.027344 103.929688 151.105469 104.707031 149.226562 L 108.949219 152.207031 L 110.257812 150.34375 L 105.628906 147.085938 C 106.433594 145.292969 107.296875 143.539062 108.222656 141.832031 L 112.394531 145.757812 L 113.957031 144.097656 L 109.378906 139.789062 C 110.328125 138.15625 111.332031 136.5625 112.394531 135.019531 L 121.453125 146.066406 L 123.214844 144.617188 L 113.761719 133.09375 C 114.847656 131.617188 115.980469 130.179688 117.164062 128.792969 L 120.855469 134.578125 L 122.773438 133.347656 L 118.734375 127.011719 C 119.941406 125.683594 121.191406 124.398438 122.488281 123.164062 L 125.757812 129.84375 L 127.800781 128.835938 L 124.238281 121.550781 C 125.554688 120.371094 126.914062 119.238281 128.3125 118.148438 L 131.039062 125.679688 L 133.179688 124.902344 L 130.21875 116.71875 C 131.636719 115.6875 133.089844 114.707031 134.582031 113.773438 L 139.125 132.054688 L 141.332031 131.5 L 136.625 112.53125 C 138.128906 111.652344 139.667969 110.824219 141.238281 110.039062 L 142.535156 119.070312 L 144.789062 118.742188 L 143.394531 109.007812 C 144.972656 108.277344 146.578125 107.597656 148.21875 106.96875 L 148.648438 116.621094 L 150.925781 116.515625 L 150.460938 106.148438 C 152.097656 105.574219 153.761719 105.046875 155.457031 104.570312 L 154.941406 114.738281 L 157.214844 114.847656 L 157.765625 103.949219 C 159.449219 103.527344 161.15625 103.152344 162.886719 102.828125 L 159.558594 125.84375 L 161.8125 126.167969 L 165.246094 102.417969 C 166.960938 102.140625 168.695312 101.914062 170.453125 101.738281 L 167.84375 112.683594 L 170.058594 113.210938 L 172.84375 101.523438 C 173.453125 101.476562 174.0625 101.4375 174.675781 101.402344 C 175.804688 101.339844 176.949219 101.300781 178.105469 101.285156 L 174.355469 112.511719 L 176.515625 113.230469 L 180.507812 101.285156 C 182.242188 101.308594 184 101.382812 185.777344 101.515625 L 180.839844 112.90625 L 182.929688 113.808594 L 188.167969 101.722656 C 189.902344 101.898438 191.652344 102.125 193.410156 102.410156 L 180.152344 127.058594 L 182.15625 128.136719 L 195.769531 102.820312 C 197.496094 103.148438 199.226562 103.527344 200.957031 103.960938 L 193.527344 115.390625 L 195.433594 116.628906 L 203.273438 104.578125 C 204.972656 105.054688 206.671875 105.589844 208.367188 106.179688 L 199.628906 117.476562 L 201.429688 118.871094 L 210.609375 106.996094 C 212.277344 107.628906 213.9375 108.320312 215.578125 109.070312 L 205.5 120.128906 L 207.183594 121.664062 L 217.730469 110.089844 C 219.347656 110.886719 220.949219 111.742188 222.527344 112.65625 L 198.296875 135.300781 L 199.847656 136.964844 L 224.558594 113.875 C 226.113281 114.839844 227.644531 115.863281 229.148438 116.949219 L 216.359375 127.117188 L 217.769531 128.902344 L 231.035156 118.359375 C 232.511719 119.496094 233.957031 120.695312 235.371094 121.960938 L 221.242188 131.449219 L 222.507812 133.34375 L 237.089844 123.550781 C 238.472656 124.867188 239.816406 126.246094 241.121094 127.699219 L 208.75 145.839844 L 209.859375 147.828125 L 242.65625 129.449219 C 243.925781 130.949219 245.15625 132.519531 246.339844 134.15625 L 229.675781 141.792969 L 230.617188 143.863281 L 247.671875 136.054688 C 248.820312 137.746094 249.917969 139.507812 250.96875 141.34375 L 233.121094 147.796875 L 233.890625 149.9375 L 252.085938 143.363281 C 253.097656 145.25 254.054688 147.214844 254.957031 149.25 L 235.988281 154.355469 L 236.578125 156.558594 L 255.859375 151.367188 C 256.71875 153.464844 257.523438 155.632812 258.261719 157.882812 L 216.421875 165.378906 L 216.816406 167.625 L 261.214844 159.667969 L 260.828125 158.433594 C 254.648438 138.703125 242.660156 122.734375 226.15625 112.253906 " fill-opacity="1" fill-rule="nonzero"/></g></g></g></g><g clip-path="url(#b26be66db2)"><g clip-path="url(#da84500c21)"><g clip-path="url(#6b1ca47f06)"><g clip-path="url(#db18b25a79)"><path fill="#db0a13" d="M 287.46875 163.390625 C 287.398438 163.144531 287.308594 162.839844 287.203125 162.476562 C 287.152344 162.292969 287.09375 162.101562 287.035156 161.890625 C 287.003906 161.785156 286.972656 161.675781 286.941406 161.5625 C 286.902344 161.445312 286.867188 161.320312 286.828125 161.195312 C 275.574219 124.695312 246.65625 95.101562 208.796875 87.199219 C 153.378906 75.632812 93.945312 114.082031 91.863281 172.929688 C 92.566406 172.976562 93.273438 173.015625 93.980469 173.054688 C 95.019531 173.113281 95.089844 173.179688 95.1875 172.128906 C 95.328125 170.625 95.488281 169.125 95.6875 167.628906 C 97.234375 155.953125 100.894531 144.730469 106.984375 134.617188 C 112.925781 124.757812 120.925781 116.144531 130.382812 109.582031 C 131 109.152344 131.625 108.730469 132.253906 108.320312 C 133.832031 107.304688 135.445312 106.316406 137.109375 105.382812 C 143.761719 101.644531 151.136719 98.683594 158.878906 96.695312 C 184.238281 90.175781 211.988281 94.097656 233.996094 108.417969 C 254.0625 121.472656 267.496094 141.847656 273.507812 164.851562 C 273.535156 164.960938 273.566406 165.066406 273.59375 165.171875 C 273.621094 165.285156 273.644531 165.390625 273.675781 165.496094 C 273.726562 165.710938 273.773438 165.90625 273.820312 166.089844 C 273.910156 166.457031 273.988281 166.765625 274.046875 167.011719 C 274.167969 167.507812 274.230469 167.765625 274.230469 167.765625 L 287.683594 164.132812 C 287.683594 164.132812 287.609375 163.882812 287.46875 163.390625 " fill-opacity="1" fill-rule="nonzero"/></g></g></g></g><g clip-path="url(#615bbfb8fc)"><g clip-path="url(#fdb53019e2)"><g clip-path="url(#6b01e0ac63)"><g clip-path="url(#afbe9ba378)"><path fill="#1a1a1a" d="M 159.378906 187.0625 C 156.683594 185.457031 155.808594 181.964844 157.421875 179.265625 C 158.824219 176.917969 161.640625 175.945312 164.121094 176.785156 C 164.496094 176.910156 164.863281 177.078125 165.214844 177.289062 C 167.910156 178.898438 168.785156 182.390625 167.171875 185.089844 C 166.394531 186.390625 165.179688 187.273438 163.828125 187.652344 C 162.378906 188.0625 160.773438 187.898438 159.378906 187.0625 Z M 261.570312 168.273438 L 171.292969 176.160156 C 170.429688 174.863281 169.273438 173.734375 167.847656 172.882812 C 162.726562 169.824219 156.089844 171.503906 153.023438 176.636719 C 149.957031 181.773438 151.625 188.414062 156.746094 191.472656 C 161.867188 194.53125 168.503906 192.847656 171.570312 187.714844 C 171.769531 187.382812 171.945312 187.042969 172.105469 186.699219 L 261.570312 168.273438 " fill-opacity="1" fill-rule="nonzero"/></g></g></g></g><g fill="#1a1a1a" fill-opacity="1"><g transform="translate(66.577756, 252.538211)"><g><path d="M 4.179688 -30.292969 L 3.753906 -27.222656 C 3.242188 -23.808594 2.902344 -21.589844 2.730469 -20.480469 L 2.730469 -19.457031 C 2.730469 -18.089844 3.070312 -17.152344 3.585938 -16.554688 C 4.265625 -15.957031 5.375 -15.53125 7.082031 -15.359375 C 8.105469 -15.273438 9.8125 -15.191406 12.117188 -15.191406 L 33.023438 -15.191406 C 32.941406 -14.421875 32.855469 -13.910156 32.769531 -13.570312 C 32.769531 -13.140625 32.597656 -12.800781 32.429688 -12.542969 C 32.257812 -12.375 32 -12.203125 31.660156 -12.117188 C 31.402344 -12.117188 30.722656 -12.03125 29.695312 -12.03125 L 1.621094 -12.03125 C 1.109375 -8.277344 0.851562 -5.886719 0.851562 -4.695312 C 0.851562 -3.414062 1.023438 -2.476562 1.449219 -1.792969 C 1.960938 -1.195312 2.730469 -0.769531 3.753906 -0.425781 C 4.949219 -0.257812 7.679688 -0.0859375 12.117188 -0.0859375 L 30.890625 -0.0859375 C 35.242188 -0.0859375 38.058594 -0.257812 39.253906 -0.425781 C 40.535156 -0.769531 41.472656 -1.28125 42.15625 -1.960938 C 42.667969 -2.644531 43.007812 -3.5 43.351562 -4.609375 C 43.691406 -5.804688 44.203125 -8.277344 44.714844 -12.03125 L 45.144531 -15.191406 C 45.570312 -18.601562 45.824219 -20.820312 45.824219 -21.847656 L 45.824219 -22.359375 C 45.824219 -23.894531 45.570312 -25.003906 44.972656 -25.6875 C 44.375 -26.367188 43.179688 -26.882812 41.304688 -27.050781 C 40.277344 -27.222656 38.058594 -27.222656 34.648438 -27.222656 L 15.871094 -27.222656 C 16.042969 -28.160156 16.128906 -28.757812 16.128906 -29.015625 C 16.214844 -29.355469 16.300781 -29.613281 16.46875 -29.78125 C 16.640625 -30.039062 16.980469 -30.210938 17.324219 -30.210938 C 17.664062 -30.292969 18.519531 -30.292969 19.710938 -30.292969 L 36.4375 -30.292969 C 39.167969 -30.292969 41.132812 -30.378906 42.15625 -30.550781 C 43.351562 -30.722656 44.203125 -30.890625 44.886719 -31.234375 C 46.082031 -31.832031 46.933594 -32.941406 47.445312 -34.5625 C 47.875 -35.757812 48.386719 -38.402344 48.898438 -42.328125 L 17.238281 -42.328125 C 14.164062 -42.328125 12.03125 -42.328125 10.835938 -42.15625 C 9.300781 -41.984375 8.191406 -41.644531 7.425781 -41.046875 C 6.570312 -40.363281 5.886719 -39.253906 5.460938 -37.546875 C 5.121094 -36.351562 4.695312 -33.964844 4.179688 -30.292969 Z M 4.179688 -30.292969 "/></g></g></g><g fill="#1a1a1a" fill-opacity="1"><g transform="translate(115.047767, 252.538211)"><g><path d="M 10.753906 10.15625 L 12.460938 0 L 32.34375 0 C 35.5 0 37.632812 -0.0859375 38.828125 -0.257812 C 40.363281 -0.511719 41.472656 -0.9375 42.15625 -1.621094 C 43.007812 -2.390625 43.605469 -3.667969 43.949219 -5.460938 C 44.203125 -6.65625 44.546875 -8.789062 44.972656 -12.03125 C 46.421875 -22.1875 47.277344 -28.246094 47.53125 -30.292969 C 48.042969 -33.195312 48.300781 -35.074219 48.300781 -36.097656 C 48.386719 -36.78125 48.386719 -37.292969 48.386719 -37.71875 C 48.386719 -38.742188 48.300781 -39.597656 47.960938 -40.195312 C 47.445312 -41.386719 45.824219 -41.984375 43.179688 -42.15625 C 42.15625 -42.328125 40.195312 -42.328125 37.292969 -42.328125 L 18.089844 -42.328125 C 14.761719 -42.328125 12.460938 -42.242188 11.265625 -42.070312 C 9.214844 -41.898438 7.765625 -41.304688 6.914062 -40.277344 C 6.316406 -39.511719 5.804688 -38.230469 5.375 -36.351562 C 5.207031 -35.328125 4.949219 -33.367188 4.523438 -30.292969 L 4.097656 -27.136719 L 0.339844 0 L -1.195312 12.03125 C -1.28125 12.714844 -1.367188 13.140625 -1.449219 13.398438 C -1.535156 13.738281 -1.707031 14.164062 -2.046875 14.507812 C -2.21875 14.847656 -2.558594 15.191406 -3.070312 15.703125 C -3.414062 16.042969 -4.097656 16.554688 -5.121094 17.410156 L -1.023438 17.410156 C 0.171875 17.410156 1.195312 17.324219 2.046875 17.238281 C 3.414062 17.066406 4.523438 16.980469 5.460938 16.640625 C 6.484375 16.300781 7.253906 15.871094 7.851562 15.445312 C 8.789062 14.761719 9.472656 13.824219 9.984375 12.800781 C 10.324219 12.03125 10.582031 11.179688 10.753906 10.15625 Z M 14.082031 -12.03125 L 16.214844 -27.136719 C 16.382812 -27.992188 16.554688 -28.585938 16.640625 -28.84375 C 16.8125 -29.355469 16.898438 -29.613281 17.066406 -29.78125 C 17.324219 -30.039062 17.75 -30.210938 18.261719 -30.210938 C 18.601562 -30.292969 19.199219 -30.292969 20.140625 -30.292969 L 35.414062 -30.292969 L 33.28125 -15.105469 C 33.195312 -14.335938 33.109375 -13.824219 33.023438 -13.484375 C 32.941406 -13.054688 32.769531 -12.714844 32.511719 -12.460938 C 32.34375 -12.375 32.171875 -12.289062 31.914062 -12.117188 C 31.746094 -12.117188 31.488281 -12.117188 31.148438 -12.03125 Z M 14.082031 -12.03125 "/></g></g></g><g fill="#1a1a1a" fill-opacity="1"><g transform="translate(164.200454, 252.538211)"><g><path d="M 18.261719 -42.242188 C 14.335938 -42.242188 11.777344 -42.242188 10.582031 -42.070312 C 9.046875 -41.898438 7.851562 -41.386719 6.996094 -40.621094 C 6.230469 -39.851562 5.632812 -38.488281 5.207031 -36.4375 L 4.179688 -30.292969 L 1.621094 -12.03125 C 1.195312 -8.617188 0.9375 -6.398438 0.851562 -5.289062 L 0.851562 -4.609375 C 0.851562 -3.5 1.023438 -2.644531 1.367188 -1.960938 C 1.878906 -1.195312 2.730469 -0.683594 3.925781 -0.339844 C 5.121094 -0.171875 7.339844 0 10.753906 0 L 43.007812 0 L 43.007812 -1.449219 C 43.007812 -3.925781 43.007812 -5.71875 42.839844 -6.742188 C 42.753906 -8.535156 42.414062 -9.8125 41.730469 -10.496094 C 41.21875 -11.179688 40.277344 -11.605469 38.914062 -11.777344 C 37.976562 -11.945312 35.839844 -12.03125 32.511719 -12.03125 L 13.738281 -12.03125 C 13.910156 -12.886719 13.996094 -13.484375 13.996094 -13.738281 C 14.082031 -14.25 14.164062 -14.59375 14.335938 -14.761719 C 14.507812 -14.933594 14.761719 -15.105469 15.019531 -15.105469 L 34.21875 -15.105469 C 37.207031 -15.105469 39.253906 -15.191406 40.363281 -15.359375 C 42.070312 -15.617188 43.265625 -16.128906 44.035156 -16.8125 C 44.714844 -17.492188 45.3125 -18.6875 45.65625 -20.308594 C 45.996094 -21.503906 46.335938 -23.722656 46.765625 -27.136719 L 47.277344 -30.292969 C 47.617188 -33.023438 47.875 -34.816406 47.960938 -35.839844 C 48.042969 -36.523438 48.042969 -37.121094 48.042969 -37.632812 C 48.042969 -39.339844 47.703125 -40.535156 46.851562 -41.132812 C 46.167969 -41.730469 44.886719 -42.070312 43.007812 -42.15625 C 41.984375 -42.242188 39.9375 -42.242188 36.867188 -42.242188 Z M 18.433594 -30.292969 L 35.074219 -30.292969 C 34.988281 -29.269531 34.902344 -28.671875 34.816406 -28.332031 C 34.816406 -27.992188 34.730469 -27.734375 34.5625 -27.5625 C 34.390625 -27.394531 34.050781 -27.222656 33.539062 -27.136719 L 15.871094 -27.136719 C 16.042969 -28.160156 16.128906 -28.757812 16.128906 -29.015625 C 16.300781 -29.441406 16.382812 -29.613281 16.46875 -29.78125 C 16.640625 -29.953125 16.8125 -30.125 16.980469 -30.210938 C 17.152344 -30.292969 17.664062 -30.292969 18.433594 -30.292969 Z M 18.433594 -30.292969 "/></g></g></g><g fill="#1a1a1a" fill-opacity="1"><g transform="translate(211.731788, 252.538211)"><g><path d="M 18.261719 -42.242188 C 14.335938 -42.242188 11.777344 -42.242188 10.582031 -42.070312 C 9.046875 -41.898438 7.851562 -41.386719 6.996094 -40.621094 C 6.230469 -39.851562 5.632812 -38.488281 5.207031 -36.4375 L 4.179688 -30.292969 L 1.621094 -12.03125 C 1.195312 -8.617188 0.9375 -6.398438 0.851562 -5.289062 L 0.851562 -4.609375 C 0.851562 -3.5 1.023438 -2.644531 1.367188 -1.960938 C 1.878906 -1.195312 2.730469 -0.683594 3.925781 -0.339844 C 5.121094 -0.171875 7.339844 0 10.753906 0 L 43.007812 0 L 43.007812 -1.449219 C 43.007812 -3.925781 43.007812 -5.71875 42.839844 -6.742188 C 42.753906 -8.535156 42.414062 -9.8125 41.730469 -10.496094 C 41.21875 -11.179688 40.277344 -11.605469 38.914062 -11.777344 C 37.976562 -11.945312 35.839844 -12.03125 32.511719 -12.03125 L 13.738281 -12.03125 C 13.910156 -12.886719 13.996094 -13.484375 13.996094 -13.738281 C 14.082031 -14.25 14.164062 -14.59375 14.335938 -14.761719 C 14.507812 -14.933594 14.761719 -15.105469 15.019531 -15.105469 L 34.21875 -15.105469 C 37.207031 -15.105469 39.253906 -15.191406 40.363281 -15.359375 C 42.070312 -15.617188 43.265625 -16.128906 44.035156 -16.8125 C 44.714844 -17.492188 45.3125 -18.6875 45.65625 -20.308594 C 45.996094 -21.503906 46.335938 -23.722656 46.765625 -27.136719 L 47.277344 -30.292969 C 47.617188 -33.023438 47.875 -34.816406 47.960938 -35.839844 C 48.042969 -36.523438 48.042969 -37.121094 48.042969 -37.632812 C 48.042969 -39.339844 47.703125 -40.535156 46.851562 -41.132812 C 46.167969 -41.730469 44.886719 -42.070312 43.007812 -42.15625 C 41.984375 -42.242188 39.9375 -42.242188 36.867188 -42.242188 Z M 18.433594 -30.292969 L 35.074219 -30.292969 C 34.988281 -29.269531 34.902344 -28.671875 34.816406 -28.332031 C 34.816406 -27.992188 34.730469 -27.734375 34.5625 -27.5625 C 34.390625 -27.394531 34.050781 -27.222656 33.539062 -27.136719 L 15.871094 -27.136719 C 16.042969 -28.160156 16.128906 -28.757812 16.128906 -29.015625 C 16.300781 -29.441406 16.382812 -29.613281 16.46875 -29.78125 C 16.640625 -29.953125 16.8125 -30.125 16.980469 -30.210938 C 17.152344 -30.292969 17.664062 -30.292969 18.433594 -30.292969 Z M 18.433594 -30.292969 "/></g></g></g><g fill="#1a1a1a" fill-opacity="1"><g transform="translate(259.263123, 252.538211)"><g><path d="M 38.488281 -52.398438 L 36.78125 -42.242188 L 16.898438 -42.242188 C 13.824219 -42.242188 11.605469 -42.15625 10.410156 -41.984375 C 8.875 -41.816406 7.765625 -41.386719 7.082031 -40.707031 C 6.316406 -40.023438 5.71875 -38.65625 5.289062 -36.78125 C 5.035156 -35.757812 4.695312 -33.539062 4.265625 -30.292969 C 4.097656 -28.84375 3.753906 -26.027344 3.070312 -21.761719 C 2.476562 -17.578125 2.046875 -14.335938 1.707031 -12.03125 C 1.28125 -9.214844 1.023438 -7.253906 0.9375 -6.230469 C 0.9375 -5.632812 0.851562 -5.121094 0.851562 -4.609375 C 0.851562 -3.585938 1.023438 -2.730469 1.28125 -2.132812 C 1.878906 -0.9375 3.5 -0.257812 6.058594 -0.0859375 C 7.082031 -0.0859375 9.046875 0 11.863281 0 L 31.0625 0 C 34.476562 0 36.78125 -0.0859375 37.890625 -0.171875 C 40.109375 -0.425781 41.558594 -1.023438 42.328125 -2.046875 C 43.007812 -2.902344 43.4375 -4.179688 43.777344 -5.972656 C 44.035156 -6.996094 44.375 -9.046875 44.714844 -12.03125 L 45.144531 -15.191406 L 48.898438 -42.242188 L 50.433594 -54.273438 C 50.605469 -54.957031 50.691406 -55.46875 50.691406 -55.726562 C 50.859375 -56.152344 51.03125 -56.492188 51.289062 -56.835938 C 51.542969 -57.175781 51.882812 -57.515625 52.3125 -57.945312 C 52.738281 -58.285156 53.421875 -58.882812 54.359375 -59.734375 L 50.261719 -59.734375 C 49.152344 -59.734375 48.128906 -59.648438 47.191406 -59.566406 C 45.910156 -59.394531 44.800781 -59.222656 43.777344 -58.882812 C 42.839844 -58.625 41.984375 -58.199219 41.304688 -57.6875 C 40.449219 -57.089844 39.765625 -56.238281 39.253906 -55.128906 C 38.914062 -54.359375 38.65625 -53.421875 38.488281 -52.398438 Z M 19.882812 -30.292969 L 35.074219 -30.292969 L 33.023438 -15.191406 C 32.855469 -14.335938 32.769531 -13.738281 32.597656 -13.398438 C 32.511719 -13.054688 32.34375 -12.714844 32.171875 -12.542969 C 32 -12.289062 31.574219 -12.117188 30.976562 -12.03125 L 13.824219 -12.03125 L 15.957031 -27.136719 C 16.128906 -27.992188 16.214844 -28.503906 16.214844 -28.757812 C 16.382812 -29.269531 16.554688 -29.613281 16.726562 -29.78125 C 16.898438 -29.953125 17.066406 -30.125 17.324219 -30.125 C 17.492188 -30.210938 17.75 -30.210938 18.089844 -30.210938 C 18.945312 -30.292969 19.542969 -30.292969 19.882812 -30.292969 Z M 19.882812 -30.292969 "/></g></g></g><g fill="#db0a13" fill-opacity="1"><g transform="translate(185.574222, 274.966695)"><g><path d="M 3.96875 0.1875 C 2.914062 0.1875 2.078125 -0.125 1.453125 -0.75 C 0.835938 -1.375 0.53125 -2.242188 0.53125 -3.359375 C 0.53125 -4.472656 0.738281 -5.488281 1.15625 -6.40625 C 1.570312 -7.320312 2.148438 -8.039062 2.890625 -8.5625 C 3.640625 -9.09375 4.484375 -9.359375 5.421875 -9.359375 C 6.472656 -9.359375 7.304688 -9.046875 7.921875 -8.421875 C 8.535156 -7.796875 8.84375 -6.929688 8.84375 -5.828125 C 8.84375 -4.703125 8.632812 -3.679688 8.21875 -2.765625 C 7.8125 -1.859375 7.234375 -1.140625 6.484375 -0.609375 C 5.742188 -0.078125 4.90625 0.1875 3.96875 0.1875 Z M 4.21875 -1.9375 C 4.632812 -1.9375 4.992188 -2.140625 5.296875 -2.546875 C 5.609375 -2.960938 5.84375 -3.46875 6 -4.0625 C 6.15625 -4.65625 6.234375 -5.21875 6.234375 -5.75 C 6.234375 -6.257812 6.140625 -6.632812 5.953125 -6.875 C 5.765625 -7.113281 5.503906 -7.234375 5.171875 -7.234375 C 4.742188 -7.234375 4.378906 -7.023438 4.078125 -6.609375 C 3.773438 -6.203125 3.539062 -5.703125 3.375 -5.109375 C 3.21875 -4.515625 3.140625 -3.953125 3.140625 -3.421875 C 3.140625 -2.429688 3.5 -1.9375 4.21875 -1.9375 Z M 4.21875 -1.9375 "/></g></g></g><g fill="#db0a13" fill-opacity="1"><g transform="translate(199.784871, 274.966695)"><g><path d="M 0.859375 -4.6875 L 4.6875 -4.6875 L 4.296875 -2.78125 L 0.484375 -2.78125 Z M 0.859375 -4.6875 "/></g></g></g><g fill="#db0a13" fill-opacity="1"><g transform="translate(210.107253, 274.966695)"><g><path d="M 5.5 -9.171875 L 3.671875 0 L 1.078125 0 L 2.5 -7.171875 L 0.796875 -7.171875 L 1.203125 -9.171875 Z M 5.5 -9.171875 "/></g></g></g><g fill="#db0a13" fill-opacity="1"><g transform="translate(220.6522, 274.966695)"><g><path d="M 3.96875 0.1875 C 2.914062 0.1875 2.078125 -0.125 1.453125 -0.75 C 0.835938 -1.375 0.53125 -2.242188 0.53125 -3.359375 C 0.53125 -4.472656 0.738281 -5.488281 1.15625 -6.40625 C 1.570312 -7.320312 2.148438 -8.039062 2.890625 -8.5625 C 3.640625 -9.09375 4.484375 -9.359375 5.421875 -9.359375 C 6.472656 -9.359375 7.304688 -9.046875 7.921875 -8.421875 C 8.535156 -7.796875 8.84375 -6.929688 8.84375 -5.828125 C 8.84375 -4.703125 8.632812 -3.679688 8.21875 -2.765625 C 7.8125 -1.859375 7.234375 -1.140625 6.484375 -0.609375 C 5.742188 -0.078125 4.90625 0.1875 3.96875 0.1875 Z M 4.21875 -1.9375 C 4.632812 -1.9375 4.992188 -2.140625 5.296875 -2.546875 C 5.609375 -2.960938 5.84375 -3.46875 6 -4.0625 C 6.15625 -4.65625 6.234375 -5.21875 6.234375 -5.75 C 6.234375 -6.257812 6.140625 -6.632812 5.953125 -6.875 C 5.765625 -7.113281 5.503906 -7.234375 5.171875 -7.234375 C 4.742188 -7.234375 4.378906 -7.023438 4.078125 -6.609375 C 3.773438 -6.203125 3.539062 -5.703125 3.375 -5.109375 C 3.21875 -4.515625 3.140625 -3.953125 3.140625 -3.421875 C 3.140625 -2.429688 3.5 -1.9375 4.21875 -1.9375 Z M 4.21875 -1.9375 "/></g></g></g><g fill="#db0a13" fill-opacity="1"><g transform="translate(234.862849, 274.966695)"><g><path d="M 3.96875 0.1875 C 2.914062 0.1875 2.078125 -0.125 1.453125 -0.75 C 0.835938 -1.375 0.53125 -2.242188 0.53125 -3.359375 C 0.53125 -4.472656 0.738281 -5.488281 1.15625 -6.40625 C 1.570312 -7.320312 2.148438 -8.039062 2.890625 -8.5625 C 3.640625 -9.09375 4.484375 -9.359375 5.421875 -9.359375 C 6.472656 -9.359375 7.304688 -9.046875 7.921875 -8.421875 C 8.535156 -7.796875 8.84375 -6.929688 8.84375 -5.828125 C 8.84375 -4.703125 8.632812 -3.679688 8.21875 -2.765625 C 7.8125 -1.859375 7.234375 -1.140625 6.484375 -0.609375 C 5.742188 -0.078125 4.90625 0.1875 3.96875 0.1875 Z M 4.21875 -1.9375 C 4.632812 -1.9375 4.992188 -2.140625 5.296875 -2.546875 C 5.609375 -2.960938 5.84375 -3.46875 6 -4.0625 C 6.15625 -4.65625 6.234375 -5.21875 6.234375 -5.75 C 6.234375 -6.257812 6.140625 -6.632812 5.953125 -6.875 C 5.765625 -7.113281 5.503906 -7.234375 5.171875 -7.234375 C 4.742188 -7.234375 4.378906 -7.023438 4.078125 -6.609375 C 3.773438 -6.203125 3.539062 -5.703125 3.375 -5.109375 C 3.21875 -4.515625 3.140625 -3.953125 3.140625 -3.421875 C 3.140625 -2.429688 3.5 -1.9375 4.21875 -1.9375 Z M 4.21875 -1.9375 "/></g></g></g><g fill="#db0a13" fill-opacity="1"><g transform="translate(249.058354, 274.966695)"><g/></g></g></svg>